<svg xmlns="http://www.w3.org/2000/svg" version="1.1" xmlns:xlink="http://www.w3.org/1999/xlink" xmlns:svgjs="http://svgjs.dev/svgjs" viewBox="0 0 640 800"><defs><radialGradient id="cccircular-grad" r="50%" cx="50%" cy="50%">
         <stop offset="15%" stop-color="#0000ca" stop-opacity="0.5"></stop>
         <stop offset="75%" stop-color="hsl(230, 100%, 50%)" stop-opacity="1"></stop>
          <stop offset="100%" stop-color="#af89ff" stop-opacity="1"></stop>
        </radialGradient></defs><g fill="url(#cccircular-grad)"><circle r="1558" cx="0" cy="400" opacity="0.05"></circle><circle r="1517" cx="0" cy="400" opacity="0.08"></circle><circle r="1476" cx="0" cy="400" opacity="0.10"></circle><circle r="1435" cx="0" cy="400" opacity="0.13"></circle><circle r="1394" cx="0" cy="400" opacity="0.15"></circle><circle r="1353" cx="0" cy="400" opacity="0.18"></circle><circle r="1312" cx="0" cy="400" opacity="0.20"></circle><circle r="1271" cx="0" cy="400" opacity="0.23"></circle><circle r="1230" cx="0" cy="400" opacity="0.26"></circle><circle r="1189" cx="0" cy="400" opacity="0.28"></circle><circle r="1148" cx="0" cy="400" opacity="0.31"></circle><circle r="1107" cx="0" cy="400" opacity="0.33"></circle><circle r="1066" cx="0" cy="400" opacity="0.36"></circle><circle r="1025" cx="0" cy="400" opacity="0.38"></circle><circle r="984" cx="0" cy="400" opacity="0.41"></circle><circle r="943" cx="0" cy="400" opacity="0.44"></circle><circle r="902" cx="0" cy="400" opacity="0.46"></circle><circle r="861" cx="0" cy="400" opacity="0.49"></circle><circle r="820" cx="0" cy="400" opacity="0.51"></circle><circle r="779" cx="0" cy="400" opacity="0.54"></circle><circle r="738" cx="0" cy="400" opacity="0.56"></circle><circle r="697" cx="0" cy="400" opacity="0.59"></circle><circle r="656" cx="0" cy="400" opacity="0.61"></circle><circle r="615" cx="0" cy="400" opacity="0.64"></circle><circle r="574" cx="0" cy="400" opacity="0.67"></circle><circle r="533" cx="0" cy="400" opacity="0.69"></circle><circle r="492" cx="0" cy="400" opacity="0.72"></circle><circle r="451" cx="0" cy="400" opacity="0.74"></circle><circle r="410" cx="0" cy="400" opacity="0.77"></circle><circle r="369" cx="0" cy="400" opacity="0.79"></circle><circle r="328" cx="0" cy="400" opacity="0.82"></circle><circle r="287" cx="0" cy="400" opacity="0.85"></circle><circle r="246" cx="0" cy="400" opacity="0.87"></circle><circle r="205" cx="0" cy="400" opacity="0.90"></circle><circle r="164" cx="0" cy="400" opacity="0.92"></circle><circle r="123" cx="0" cy="400" opacity="0.95"></circle><circle r="82" cx="0" cy="400" opacity="0.97"></circle></g></svg>